<svg xmlns="http://www.w3.org/2000/svg" width="49.305" height="49.056" viewBox="0 0 49.305 49.056">
  <g id="Group_760" data-name="Group 760" transform="translate(-24.39 -37.81)">
    <g id="Group_755" data-name="Group 755" transform="translate(35.768 42.67)">
      <path id="Path_2095" data-name="Path 2095" d="M35.52,43.361a5.314,5.314,0,1,0-5.314,5.292A5.341,5.341,0,0,0,35.52,43.361Zm-5.314,3.815a3.815,3.815,0,1,1,3.815-3.815A3.809,3.809,0,0,1,30.205,47.176Z" transform="translate(-24.891 -38.024)" fill="#fff"/>
    </g>
    <g id="Group_756" data-name="Group 756" transform="translate(68.086 48.229)">
      <path id="Path_2096" data-name="Path 2096" d="M27.063,39.751a.793.793,0,0,0,.545-.227.72.72,0,0,0,.2-.522.739.739,0,0,0-1.272-.545.888.888,0,0,0-.227.545.739.739,0,0,0,.227.522A.782.782,0,0,0,27.063,39.751Z" transform="translate(-26.314 -38.269)" fill="#fff"/>
    </g>
    <g id="Group_757" data-name="Group 757" transform="translate(65.169 49.887)">
      <path id="Path_2097" data-name="Path 2097" d="M26.922,39.823a.619.619,0,0,0,.363-.091.732.732,0,0,0,.3-1.022.763.763,0,0,0-1.022-.273.743.743,0,0,0-.272,1.022A.753.753,0,0,0,26.922,39.823Z" transform="translate(-26.186 -38.342)" fill="#fff"/>
    </g>
    <g id="Group_758" data-name="Group 758" transform="translate(62.249 51.556)">
      <path id="Path_2098" data-name="Path 2098" d="M26.784,39.886a.739.739,0,0,0,.545-1.249.754.754,0,0,0-1.067,0,.77.77,0,0,0,0,1.045A.668.668,0,0,0,26.784,39.886Z" transform="translate(-26.057 -38.415)" fill="#fff"/>
    </g>
    <g id="Group_759" data-name="Group 759" transform="translate(24.39 37.81)">
      <path id="Path_2099" data-name="Path 2099" d="M73.332,42.193a.738.738,0,0,0-.749,0l-15.557,8.88-5.837-3.339a10.108,10.108,0,0,0-20.213,0l-6.2,3.52a.747.747,0,0,0-.386.681v34.18a.736.736,0,0,0,.386.659.666.666,0,0,0,.363.091.618.618,0,0,0,.363-.091l15.58-8.88,15.557,8.88.068.023.045.023.273.046h0l.25-.046.068-.023.045-.023L73.332,77.69a.735.735,0,0,0,.363-.659v-34.2A.753.753,0,0,0,73.332,42.193Zm-32.25-2.907a8.641,8.641,0,0,1,8.63,8.63c0,6.041-6.609,15.148-8.63,17.805-2.021-2.657-8.63-11.764-8.63-17.805A8.641,8.641,0,0,1,41.083,39.286Zm.749,28.8L45.9,70.377a8.017,8.017,0,0,1-4.065,1.567Zm.454-1.476a62.209,62.209,0,0,0,6.791-10.879l3.588,2.044c-.341,1.794-1.794,7.994-5.519,11.583Zm-16.4-14.262,5.178-2.952A19.53,19.53,0,0,0,32.5,54.343l-6.609,3.77Zm0,7.472,7.2-4.088a62.209,62.209,0,0,0,6.791,10.879l-13.99,7.972ZM40.333,76.623l-6.359,3.611c.568-2.226,2.18-6.177,6.359-6.677Zm0-4.565c-6.314.636-7.813,7.449-8.085,9.152l-6.359,3.611V76.305l14.444-8.221ZM56.276,84.822l-14.444-8.2V73.443a10.031,10.031,0,0,0,5.519-2.226l8.925,5.087Zm0-10.243L48.532,70.15c3.543-3.656,5.019-9.266,5.519-11.583l2.226,1.249Zm1.5,10.243V76.305l7.29-4.179-4.86,11.31Zm14.444-8.2-9.879,5.61,9.879-22.938Zm0-21.1L66.042,69.855l-8.267,4.724V59.817L72.219,51.6Zm0-5.632L57.026,58.545l-7.358-4.2A19.53,19.53,0,0,0,51.1,49.393l5.541,3.179a.738.738,0,0,0,.749,0l14.83-8.448Z" transform="translate(-24.39 -37.81)" fill="#fff"/>
    </g>
  </g>
</svg>
