<svg xmlns="http://www.w3.org/2000/svg" width="49.305" height="49.3" viewBox="0 0 49.305 49.3">
  <g id="Group_754" data-name="Group 754" transform="translate(-104.476 -51.941)">
    <g id="Group_751" data-name="Group 751" transform="translate(104.476 51.941)">
      <path id="Path_2092" data-name="Path 2092" d="M141.892,85a11.017,11.017,0,0,1-2.293,1.839c-4.519,2.589-8.538-.886-14.193-6.563-5.609-5.609-9.106-9.606-6.54-14.124a11.1,11.1,0,0,1,1.839-2.316,3.31,3.31,0,0,0,.545-4.156,18.093,18.093,0,0,0-3.27-4.019c-2.157-2.134-5.427-5.4-8.129-2.7a21.2,21.2,0,0,0-2.7,3.293c-5.723,8.606-2.271,19.029,10.514,31.791,8.811,8.833,16.486,13.193,23.23,13.193a15.219,15.219,0,0,0,8.561-2.657,21.213,21.213,0,0,0,3.293-2.7c2.725-2.725-.545-5.995-2.725-8.129C147.864,85.572,144.617,82.3,141.892,85Zm-31-30.974c1.249-1.249,2.725-.59,6.04,2.7a16.453,16.453,0,0,1,2.975,3.633,1.842,1.842,0,0,1-.25,2.407c-.386.386-.727.749-1.044,1.135l-.25-.522-.068-.114-.25-.386-.068-.114-.34-.5-.068-.068-.341-.454-.114-.136-.363-.409-.068-.091-.477-.522-.113-.114-.386-.386-.136-.159-.5-.5-.522-.5-.136-.159-.545-.522-.045-.045-.59-.545-.159-.114-.545-.454-.091-.091-.636-.432-.159-.114-.568-.318-.114-.068c-.227-.114-.432-.2-.658-.3l-.136-.045a2.786,2.786,0,0,0-.568-.114l-.114-.023C109.942,55.053,110.4,54.53,110.9,54.031ZM118.707,87c-12.126-12.126-15.532-21.89-10.423-29.77l.068-.023.136-.068.136-.045.136-.023.136-.023h.318l.114.023.182.045.136.023.159.068.159.045.182.091.136.068.2.114.159.068.2.136.159.091.2.159.182.136.227.182.159.136.25.182.159.159.272.227.159.159.3.273.159.136.363.363.114.091.477.477.318.341.091.068.25.273.068.068.25.25.068.091.25.25.091.114.2.227.114.091.182.25.113.114.159.227L116.3,63l.159.2.091.114.136.2.113.136.091.182.091.159.091.159.091.136.068.182.068.159.045.136.045.159.046.159.023.114.023.159v.227c-3.134,5.745,1.953,10.854,6.88,15.759,4.928,4.95,10.037,10.06,15.8,6.881h.068l.477.045.091.045a2.224,2.224,0,0,1,.5.182l.114.068.477.25.182.114.477.341.159.136c.159.136.341.25.5.386l.159.136.522.477.114.114.568.5.046.068c.2.2.409.386.59.59a3.271,3.271,0,0,1,.477.5l.068.045.386.409.091.114.341.341.114.136.272.273.114.159.227.272.113.159.2.25.114.136.159.227.113.159.114.2.091.182.114.159.068.159.091.182.045.159.045.182.046.159.023.136.023.136v.318l-.023.136-.023.136-.046.136-.068.114-.023.068C140.575,102.558,130.855,99.151,118.707,87ZM151.7,94.814a18.5,18.5,0,0,1-1.567,1.431l-.023-.113-.136-.568-.046-.159a5.091,5.091,0,0,0-.272-.659l-.068-.114-.318-.545-.114-.182-.454-.613-.068-.091-.454-.568-.136-.136-.522-.613-.068-.068-.522-.522-.159-.159-.5-.5-.522-.522L145.661,90l-.454-.409-.068-.068-.545-.5-.023-.045-.477-.386L144,88.5c-.364-.3-.7-.545-1.045-.772l-.068-.045-.477-.3-.045-.045-.545-.25a11.557,11.557,0,0,0,1.135-1.022c1.249-1.249,2.7-.59,6.017,2.725a15.909,15.909,0,0,1,2.975,3.611A1.839,1.839,0,0,1,151.7,94.814Z" transform="translate(-104.476 -51.941)" fill="#fff"/>
    </g>
    <g id="Group_752" data-name="Group 752" transform="translate(125.814 51.942)">
      <path id="Path_2093" data-name="Path 2093" d="M119.4,51.941a13.977,13.977,0,1,0,0,27.953,14.145,14.145,0,0,0,6.381-1.544l6.449,4.178a.681.681,0,0,0,.749.045.763.763,0,0,0,.386-.659V65.929A13.989,13.989,0,0,0,119.4,51.941ZM131.893,80.53l-5.654-3.679a.939.939,0,0,0-.431-.114.641.641,0,0,0-.341.091,12.477,12.477,0,1,1,6.426-10.9Z" transform="translate(-105.416 -51.941)" fill="#fff"/>
    </g>
    <g id="Group_753" data-name="Group 753" transform="translate(131.083 57.437)">
      <path id="Path_2094" data-name="Path 2094" d="M120.749,57.633h-3.361V54.272a2.1,2.1,0,0,0-2.112-2.089h-2.044a2.118,2.118,0,0,0-2.112,2.089v3.361h-3.338a2.132,2.132,0,0,0-2.135,2.134v2.021a2.113,2.113,0,0,0,2.135,2.112h3.338v3.383a2.1,2.1,0,0,0,2.112,2.066h2.044a2.084,2.084,0,0,0,2.112-2.066V63.9h3.361a2.108,2.108,0,0,0,2.112-2.112V59.767A2.127,2.127,0,0,0,120.749,57.633Zm.613,4.156a.63.63,0,0,1-.613.636h-4.087a.723.723,0,0,0-.75.727v4.133a.627.627,0,0,1-.636.59h-2.044a.606.606,0,0,1-.613-.59V63.151a.737.737,0,0,0-.749-.727h-4.087a.65.65,0,0,1-.636-.636V59.767a.635.635,0,0,1,.636-.636h4.087a.756.756,0,0,0,.749-.749v-4.11a.626.626,0,0,1,.613-.613h2.044a.646.646,0,0,1,.636.613v4.11a.742.742,0,0,0,.75.749h4.087a.616.616,0,0,1,.613.636Z" transform="translate(-105.648 -52.183)" fill="#fff"/>
    </g>
  </g>
</svg>
