<svg xmlns="http://www.w3.org/2000/svg" width="49.306" height="45.513" viewBox="0 0 49.306 45.513">
  <g id="Group_766" data-name="Group 766" transform="translate(-30.91 -37.94)">
    <g id="Group_761" data-name="Group 761" transform="translate(30.91 42.482)">
      <path id="Path_2100" data-name="Path 2100" d="M80.216,73.864l-.046-.273-.023-.023-.091-.136L74.992,66.8V41.3a3.076,3.076,0,0,0-3-3.157H68.383a.742.742,0,0,0-.749.749.752.752,0,0,0,.749.727h3.611a1.6,1.6,0,0,1,1.5,1.681v25H37.632V55.764a.749.749,0,0,0-1.5,0V66.8l-5.065,6.632-.091.136-.023.023-.045.273v2.271a2.971,2.971,0,0,0,2.975,2.975H77.218a2.976,2.976,0,0,0,3-2.975V73.864ZM37.246,67.8H73.879l4.065,5.36H33.158Zm41.47,8.335a1.483,1.483,0,0,1-1.5,1.5H33.885a1.5,1.5,0,0,1-1.5-1.5v-1.5h46.33Z" transform="translate(-30.91 -38.14)" fill="#fff"/>
    </g>
    <g id="Group_762" data-name="Group 762" transform="translate(30.91 37.94)">
      <path id="Path_2101" data-name="Path 2101" d="M33.885,57.108h6.722v9.947a.752.752,0,0,0,.749.727H69.768a.732.732,0,0,0,.727-.727V47.615a.737.737,0,0,0-.727-.749H65.385V40.938a3,3,0,0,0-3-3h-28.5a2.99,2.99,0,0,0-2.975,3v13.2A2.971,2.971,0,0,0,33.885,57.108Zm31.5-2.975V48.342H69V66.283H42.107V57.108h9.2l7.245,5.155a.681.681,0,0,0,.409.136.667.667,0,0,0,.363-.091.755.755,0,0,0,.386-.659V57.108h2.68A2.976,2.976,0,0,0,65.385,54.133Zm-33-13.2a1.5,1.5,0,0,1,1.5-1.5h28.5a1.483,1.483,0,0,1,1.5,1.5v13.2a1.5,1.5,0,0,1-1.5,1.5H58.958a.737.737,0,0,0-.749.727V60.2l-6.245-4.429a.7.7,0,0,0-.431-.136H33.885a1.512,1.512,0,0,1-1.5-1.5Z" transform="translate(-30.91 -37.94)" fill="#fff"/>
    </g>
    <g id="Group_763" data-name="Group 763" transform="translate(48.148 43.822)">
      <path id="Path_2102" data-name="Path 2102" d="M32.418,39.721h9.7a.766.766,0,0,0,.772-.772.776.776,0,0,0-.772-.749h-9.7a.771.771,0,0,0-.749.749A.761.761,0,0,0,32.418,39.721Z" transform="translate(-31.669 -38.199)" fill="#fff"/>
    </g>
    <g id="Group_764" data-name="Group 764" transform="translate(36.928 43.822)">
      <path id="Path_2103" data-name="Path 2103" d="M31.924,39.721h6.722a.747.747,0,0,0,.749-.772.756.756,0,0,0-.749-.749H31.924a.772.772,0,0,0-.749.749A.761.761,0,0,0,31.924,39.721Z" transform="translate(-31.175 -38.199)" fill="#fff"/>
    </g>
    <g id="Group_765" data-name="Group 765" transform="translate(36.928 49.727)">
      <path id="Path_2104" data-name="Path 2104" d="M31.924,39.958H47.618a.749.749,0,0,0,0-1.5H31.924a.749.749,0,1,0,0,1.5Z" transform="translate(-31.175 -38.459)" fill="#fff"/>
    </g>
  </g>
</svg>
