<svg xmlns="http://www.w3.org/2000/svg" width="298" height="111.273" viewBox="0 0 298 111.273">
  <g id="Group_771" data-name="Group 771" transform="translate(-761 -160)">
    <g id="Group_92" data-name="Group 92" transform="translate(835 227.335)">
      <path id="Path_499" data-name="Path 499" d="M82.146,60.038,87.7,69.91h5.211L87.082,60.3a5.127,5.127,0,0,0,3.391-1.8,5.555,5.555,0,0,0,1.314-3.724,5.342,5.342,0,0,0-1.92-4.495q-1.919-1.494-5.772-1.495H77.628V69.91h4.518Zm0-7.808h.678a6.715,6.715,0,0,1,3.557.658,2.5,2.5,0,0,1,.946,2.214,2.339,2.339,0,0,1-.881,2.086,7.222,7.222,0,0,1-3.622.6h-.678Z" transform="translate(-77.628 -48.248)" fill="#141414"/>
      <path id="Path_500" data-name="Path 500" d="M92.482,68.108a11.72,11.72,0,0,0,3.4,1.884,11.3,11.3,0,0,0,8.061-.18,11.675,11.675,0,0,0,3.709-2.41,10.493,10.493,0,0,0,2.432-3.55,11.31,11.31,0,0,0,.008-8.557,10.669,10.669,0,0,0-2.44-3.566,11.519,11.519,0,0,0-3.686-2.394,11.257,11.257,0,0,0-4.294-.852,11.619,11.619,0,0,0-8.01,3.247,10.584,10.584,0,0,0-2.453,3.558,10.967,10.967,0,0,0-.838,4.279,10.736,10.736,0,0,0,4.113,8.543Zm2.424-13.6a6.517,6.517,0,0,1,9.483.008,7.719,7.719,0,0,1,.022,10.095,6.189,6.189,0,0,1-4.741,2.013,6.253,6.253,0,0,1-4.792-2,7.759,7.759,0,0,1,.028-10.117Z" transform="translate(-71.382 -48.423)" fill="#141414"/>
      <path id="Path_501" data-name="Path 501" d="M109.755,69.91h4.517V60.269l7.159-11.488h-5.29l-3.109,5.758a13.868,13.868,0,0,0-.571,1.272,13.686,13.686,0,0,0-.454,1.385q-.261-.866-.506-1.531a8.9,8.9,0,0,0-.476-1.1l-3.131-5.788h-5.3l7.159,11.488Z" transform="translate(-63.11 -48.248)" fill="#141414"/>
      <path id="Path_502" data-name="Path 502" d="M121.13,48.781,113.091,69.91h4.849l1.472-4.488H127.6l1.717,4.488h5.138L126.3,48.781Zm-.448,13.09,2.281-6.739q.088-.275.261-1.09t.361-1.841q.173,1.068.332,1.8c.106.49.191.837.259,1.039l2.367,6.826Z" transform="translate(-57.007 -48.248)" fill="#141414"/>
      <path id="Path_503" data-name="Path 503" d="M132.521,66.071V48.781H128V69.91h11.733V66.071Z" transform="translate(-48.336 -48.248)" fill="#141414"/>
      <path id="Path_504" data-name="Path 504" d="M154,48.763h-5.225l-7.043,9.568V48.763h-4.518V69.892h4.518V58.837l7.1,11.055h5.441l-7.837-11.5Z" transform="translate(-42.979 -48.258)" fill="#2b2b2b"/>
      <path id="Path_505" data-name="Path 505" d="M162.171,58.476a5.561,5.561,0,0,0,1.313-3.724,5.343,5.343,0,0,0-1.92-4.5q-1.919-1.492-5.772-1.493h-6.465V69.892h4.517V60.02l5.557,9.872h5.209l-5.831-9.612A5.126,5.126,0,0,0,162.171,58.476Zm-4.026-1.306a7.251,7.251,0,0,1-3.623.6h-.678V52.212h.678a6.744,6.744,0,0,1,3.558.656,2.507,2.507,0,0,1,.944,2.216A2.34,2.34,0,0,1,158.144,57.17Z" transform="translate(-35.937 -48.259)" fill="#2b2b2b"/>
      <path id="Path_506" data-name="Path 506" d="M171.685,48.444a11.559,11.559,0,0,0-8.371,3.131,10.571,10.571,0,0,0-3.247,7.952,10.626,10.626,0,0,0,3.24,7.974,11.414,11.414,0,0,0,8.29,3.139,12.91,12.91,0,0,0,3.327-.419,11.881,11.881,0,0,0,3.024-1.27l.029-4.632a9.015,9.015,0,0,1-6.321,2.453,6.681,6.681,0,0,1-5.08-1.955,7.353,7.353,0,0,1-1.863-5.29A7.36,7.36,0,0,1,166.72,54.1,7.242,7.242,0,0,1,172.1,52.08a8.348,8.348,0,0,1,3.089.571,9.466,9.466,0,0,1,2.813,1.8l.16-4.533A14.77,14.77,0,0,0,175,48.8,15.069,15.069,0,0,0,171.685,48.444Z" transform="translate(-29.691 -48.444)" fill="#2b2b2b"/>
    </g>
    <g id="Group_93" data-name="Group 93" transform="translate(882 160)">
      <path id="Path_507" data-name="Path 507" d="M55.652,44.21V38.118c.134,0,.274,0,.408,0s.269,0,.4,0v6.142a1.4,1.4,0,0,1,0,2.622v4.074l-.013.413h-.786l-.013-.413V46.933a1.4,1.4,0,0,1,0-2.723Z" transform="translate(-28.617 -38.115)" fill="#028389"/>
      <path id="Path_508" data-name="Path 508" d="M56.814,63.1V80.923c-.172,0-.345,0-.517,0s-.34,0-.512,0V63.1a2.131,2.131,0,1,1,1.03,0Z" transform="translate(-28.854 -26.031)" fill="#028389"/>
      <path id="Path_509" data-name="Path 509" d="M82.653,65.566A27.444,27.444,0,0,1,56.744,92.961a1.186,1.186,0,0,0-.351-1.585C61.049,77.145,67,71.84,67,71.84c-5.472-11.912-2.537-15.949-2.386-16.134V55.69l-.267-1.2,3.255-11.561a7.925,7.925,0,0,0-5.239,3.536,2.367,2.367,0,0,1,1.6,2V48.7A2.371,2.371,0,0,1,61.6,51.085a2.284,2.284,0,0,1-1.518-.55,2.332,2.332,0,0,1-.851-1.752l1.284-4.621-4.488-6.038A27.33,27.33,0,0,1,72.56,44.278c.334.283.667.584,1,.884A27.362,27.362,0,0,1,82.3,61.2c.066.384.115.767.166,1.151A29,29,0,0,1,82.653,65.566Z" transform="translate(-27.77 -38.11)" fill="#0083b0"/>
      <path id="Path_510" data-name="Path 510" d="M75.012,55.688H56.194s3.236,3.936-2.386,16.149c0,0,5.956,5.306,10.612,19.538a1.184,1.184,0,0,0-.535.984,1.066,1.066,0,0,0,.183.6,27.447,27.447,0,0,1,.718-54.84L60.3,44.175,61.582,48.8a2.319,2.319,0,0,1-.833,1.735,2.382,2.382,0,0,1-3.9-1.819v-.234a2.388,2.388,0,0,1,1.6-2.018,7.282,7.282,0,0,0-2.069-2.186,7.527,7.527,0,0,0-3.171-1.352L56.46,54.486H74.745Z" transform="translate(-38.159 -38.113)" fill="#00b4db"/>
      <line id="Line_7" data-name="Line 7" x1="0.017" y1="0.017" transform="translate(39.819 4.8)" fill="none"/>
      <line id="Line_8" data-name="Line 8" x1="0.017" transform="translate(36.57 16.373)" fill="none"/>
      <path id="Path_511" data-name="Path 511" d="M61.441,49.228h.033" transform="translate(-24.621 -31.653)" fill="none"/>
    </g>
    <text id="ALL_YOU_SCHOLAR_NEEDS_IN_A_SINGLE_PLACE" data-name="ALL YOU SCHOLAR NEEDS IN A SINGLE PLACE" transform="translate(761 268.273)" fill="#575757" font-size="12" font-family="Roboto-Regular, Roboto" letter-spacing="0.1em"><tspan x="0" y="0">ALL YOU SCHOLAR NEEDS IN A SINGLE PLACE</tspan></text>
  </g>
</svg>
