<svg id="Group_93" data-name="Group 93" xmlns="http://www.w3.org/2000/svg" width="54.884" height="54.895" viewBox="0 0 54.884 54.895">
  <path id="Path_507" data-name="Path 507" d="M55.652,44.21V38.118c.134,0,.274,0,.408,0s.269,0,.4,0v6.142a1.4,1.4,0,0,1,0,2.622v4.074l-.013.413h-.786l-.013-.413V46.933a1.4,1.4,0,0,1,0-2.723Z" transform="translate(-28.617 -38.115)" fill="#028389"/>
  <path id="Path_508" data-name="Path 508" d="M56.814,63.1V80.923c-.172,0-.345,0-.517,0s-.34,0-.512,0V63.1a2.131,2.131,0,1,1,1.03,0Z" transform="translate(-28.854 -26.031)" fill="#028389"/>
  <path id="Path_509" data-name="Path 509" d="M82.653,65.566A27.444,27.444,0,0,1,56.744,92.961a1.186,1.186,0,0,0-.351-1.585C61.049,77.145,67,71.84,67,71.84c-5.472-11.912-2.537-15.949-2.386-16.134V55.69l-.267-1.2,3.255-11.561a7.925,7.925,0,0,0-5.239,3.536,2.367,2.367,0,0,1,1.6,2V48.7A2.371,2.371,0,0,1,61.6,51.085a2.284,2.284,0,0,1-1.518-.55,2.332,2.332,0,0,1-.851-1.752l1.284-4.621-4.488-6.038A27.33,27.33,0,0,1,72.56,44.278c.334.283.667.584,1,.884A27.362,27.362,0,0,1,82.3,61.2c.066.384.115.767.166,1.151A29,29,0,0,1,82.653,65.566Z" transform="translate(-27.77 -38.11)" fill="#0083b0"/>
  <path id="Path_510" data-name="Path 510" d="M75.012,55.688H56.194s3.236,3.936-2.386,16.149c0,0,5.956,5.306,10.612,19.538a1.184,1.184,0,0,0-.535.984,1.066,1.066,0,0,0,.183.6,27.447,27.447,0,0,1,.718-54.84L60.3,44.175,61.582,48.8a2.319,2.319,0,0,1-.833,1.735,2.382,2.382,0,0,1-3.9-1.819v-.234a2.388,2.388,0,0,1,1.6-2.018,7.282,7.282,0,0,0-2.069-2.186,7.527,7.527,0,0,0-3.171-1.352L56.46,54.486H74.745Z" transform="translate(-38.159 -38.113)" fill="#00b4db"/>
  <line id="Line_7" data-name="Line 7" x1="0.017" y1="0.017" transform="translate(39.819 4.8)" fill="none"/>
  <line id="Line_8" data-name="Line 8" x1="0.017" transform="translate(36.57 16.373)" fill="none"/>
  <path id="Path_511" data-name="Path 511" d="M61.441,49.228h.033" transform="translate(-24.621 -31.653)" fill="none"/>
</svg>
