<svg id="Group_533" data-name="Group 533" xmlns="http://www.w3.org/2000/svg" width="43.745" height="44.337" viewBox="0 0 43.745 44.337">
  <path id="Path_1892" data-name="Path 1892" d="M84.31,55.571H81.328v-2.92a.667.667,0,0,0-.674-.674c-11.11,0-15.521,2.532-16.89,3.574-1.368-1.041-5.78-3.574-16.889-3.574a.667.667,0,0,0-.674.674v2.92H43.24a1.334,1.334,0,0,0-1.348,1.348V88.492A1.329,1.329,0,0,0,43.24,89.82H57.7l.266.02-.225,1.246a.763.763,0,0,0,.245.633l5.371,4.452a.72.72,0,0,0,.429.143.607.607,0,0,0,.429-.143l5.392-4.452a.691.691,0,0,0,.225-.633l-.2-1.246.2-.02H84.31a1.338,1.338,0,0,0,1.327-1.327V56.919A1.342,1.342,0,0,0,84.31,55.571Zm-17.6,16.889L69.3,69.275l.735.878a.678.678,0,0,0,.511.245l.265-.041c.2-.082,4.7-1.981,9.17-7.8V84.673A44.271,44.271,0,0,0,68.972,85.96ZM58.6,85.981a43.3,43.3,0,0,0-11.069-1.307v-22.2c4.513,5.882,9.047,7.8,9.251,7.883l.245.041a.688.688,0,0,0,.531-.245l.715-.878,2.614,3.186ZM79.98,60.289a26.708,26.708,0,0,1-9.231,8.618l-5.575-6.719c4.942-.449,11.416-3.063,14.806-5.963ZM57.76,67.8h0l-.919,1.1a26.774,26.774,0,0,1-9.292-8.7h0l-.02-3.942c3.411,2.839,9.966,5.473,14.847,5.922Zm22.22-14.48v1.042c-2.818,3.125-10.4,6.249-15.542,6.515V56.735C65.235,56.061,69.074,53.427,79.98,53.325ZM63.091,56.735v4.146c-5.167-.265-12.683-3.37-15.562-6.453v-1.1C58.475,53.427,62.294,56.082,63.091,56.735ZM57.7,88.472l-14.459.02V56.919H46.2V85.327a.684.684,0,0,0,.674.694,43.693,43.693,0,0,1,11.518,1.287l-.2,1.2Zm6.086,6.29-4.636-3.839,3.1-18.523a.693.693,0,0,0-.143-.551l-2.961-3.615,4.616-5.575,4.656,5.575L65.46,71.848a.9.9,0,0,0-.143.551l3.125,18.523Zm6.045-6.29-.429.041-.2-1.225a43.458,43.458,0,0,1,11.457-1.266.685.685,0,0,0,.674-.694V56.919h2.961l.02,31.553Z" transform="translate(-41.892 -51.977)" fill="#1a171b"/>
</svg>
