<svg id="Group_744" data-name="Group 744" xmlns="http://www.w3.org/2000/svg" width="54.123" height="49.662" viewBox="0 0 54.123 49.662">
  <g id="Group_526" data-name="Group 526" transform="translate(34.986)">
    <path id="Path_1886" data-name="Path 1886" d="M41.231,58.819a3.377,3.377,0,1,0-3.339-3.389A3.392,3.392,0,0,0,41.231,58.819Zm0-5.083a1.708,1.708,0,0,1,1.744,1.695,1.734,1.734,0,0,1-1.744,1.744,1.708,1.708,0,0,1-1.695-1.744A1.681,1.681,0,0,1,41.231,53.735Z" transform="translate(-37.892 -52.066)" fill="#1a171b"/>
  </g>
  <g id="Group_527" data-name="Group 527" transform="translate(12.409)">
    <path id="Path_1887" data-name="Path 1887" d="M40.35,58.819a3.376,3.376,0,1,0-3.364-3.389A3.371,3.371,0,0,0,40.35,58.819Zm0-5.083a1.7,1.7,0,0,1,1.719,1.695,1.72,1.72,0,1,1-3.439,0A1.7,1.7,0,0,1,40.35,53.735Z" transform="translate(-36.986 -52.066)" fill="#1a171b"/>
  </g>
  <g id="Group_528" data-name="Group 528" transform="translate(3.414 8.049)">
    <path id="Path_1888" data-name="Path 1888" d="M57.681,59.615H56.41v-1.5a5.732,5.732,0,0,0-5.731-5.731H47.29a5.732,5.732,0,0,0-5.731,5.731v1.5H39.416a.821.821,0,0,0-.772.523L36.675,65.5l-.05.249v5.382a.822.822,0,1,0,1.645,0V66.592H43.6l-.05.473a3.75,3.75,0,0,0,7.5,0L51,66.592h5.856v4.535a.83.83,0,0,0,.822.822.808.808,0,0,0,.8-.822V60.438A.793.793,0,0,0,57.681,59.615ZM43.2,58.12a4.089,4.089,0,0,1,4.087-4.087h3.389a4.089,4.089,0,0,1,4.087,4.087v1.5H43.2ZM47.29,69.184a2.118,2.118,0,1,1,2.118-2.118A2.127,2.127,0,0,1,47.29,69.184Zm9.569-4.236H50.4a3.748,3.748,0,0,0-6.2,0H38.618l1.37-3.688h16.87Z" transform="translate(-36.625 -52.389)" fill="#1a171b"/>
  </g>
  <g id="Group_529" data-name="Group 529" transform="translate(28.831 8.049)">
    <path id="Path_1889" data-name="Path 1889" d="M39.265,71.128V66.592h5.881l-.05.473a3.75,3.75,0,0,0,7.5,0l-.05-.473h5.333v4.535a.822.822,0,1,0,1.645,0V65.745l-.075-.249-1.944-5.357a.847.847,0,0,0-.772-.523H54.59v-1.5a5.753,5.753,0,0,0-5.756-5.731H45.469a5.732,5.732,0,0,0-5.731,5.731v1.5H38.467a.814.814,0,0,0-.822.822v10.69a.83.83,0,0,0,.822.822A.808.808,0,0,0,39.265,71.128Zm9.569-1.944a2.118,2.118,0,1,1,2.118-2.118A2.132,2.132,0,0,1,48.833,69.184ZM41.358,58.12a4.094,4.094,0,0,1,4.112-4.087h3.364a4.094,4.094,0,0,1,4.111,4.087v1.5H41.358Zm-2.093,3.14H56.159l1.346,3.688H51.923a3.725,3.725,0,0,0-6.18,0H39.265Z" transform="translate(-37.645 -52.389)" fill="#1a171b"/>
  </g>
  <g id="Group_530" data-name="Group 530" transform="translate(0 28.208)">
    <path id="Path_1890" data-name="Path 1890" d="M60.559,61.5h-1.57V58.929A5.748,5.748,0,0,0,53.258,53.2H47.9a5.748,5.748,0,0,0-5.731,5.731V61.5H39.578a.809.809,0,0,0-.772.548l-2.268,6.13-.05.274v5.357a.823.823,0,1,0,1.645,0V69.3h21.6v4.51a.823.823,0,1,0,1.645,0V62.318A.83.83,0,0,0,60.559,61.5ZM43.814,58.929A4.089,4.089,0,0,1,47.9,54.843h5.357a4.089,4.089,0,0,1,4.087,4.087V61.5H43.814Zm15.923,8.7H38.482l1.669-4.461H59.737Z" transform="translate(-36.488 -53.198)" fill="#1a171b"/>
  </g>
  <g id="Group_531" data-name="Group 531" transform="translate(29.229 28.208)">
    <path id="Path_1891" data-name="Path 1891" d="M62.53,68.448l-.025-.274-2.268-6.13a.833.833,0,0,0-.772-.548H56.873V58.929A5.769,5.769,0,0,0,51.117,53.2H45.784a5.77,5.77,0,0,0-5.756,5.731V61.5h-1.57a.809.809,0,0,0-.8.822V73.806a.83.83,0,0,0,.8.847.873.873,0,0,0,.847-.847V69.3h21.6v4.51a.835.835,0,0,0,.822.847.851.851,0,0,0,.822-.847V68.473ZM41.673,58.929a4.11,4.11,0,0,1,4.112-4.087h5.333a4.11,4.11,0,0,1,4.112,4.087V61.5H41.673Zm-2.367,8.7V63.165H58.892l1.67,4.461Z" transform="translate(-37.661 -53.198)" fill="#1a171b"/>
  </g>
</svg>
