<svg id="Group_745" data-name="Group 745" xmlns="http://www.w3.org/2000/svg" width="54.123" height="54.117" viewBox="0 0 54.123 54.117">
  <g id="Group_677" data-name="Group 677">
    <path id="Path_2021" data-name="Path 2021" d="M85.153,74.239l-.025-.224-.05-.05-.125-.174-.025-.05-.025-.025-9-8.472a.965.965,0,0,0-.573-.224H71.224V59.512h1.4a.778.778,0,0,0,.773-.548.77.77,0,0,0-.274-.9l-14.5-10.79a.786.786,0,0,0-.972,0L43.115,58.067a.769.769,0,0,0-.274.9.778.778,0,0,0,.772.548h1.4v5.507H40.9a.9.9,0,0,0-.548.224l-8.7,8.148a.847.847,0,0,0-.6.772V100.4a.814.814,0,0,0,.822.822H84.356a.814.814,0,0,0,.822-.822V74.289Zm-10.142-7.55,7.276,6.8H71.224v-6.8ZM58.116,48.972l12.011,8.921H46.106ZM69.6,59.512v2.866H46.629V59.512ZM41.222,66.689h3.788v6.653H34.1ZM32.7,75.136h12.31v24.47H32.7Zm13.929-.847V64H69.6V99.606H65.492V95.245a7.338,7.338,0,0,0-7.326-7.326h-.1a7.338,7.338,0,0,0-7.326,7.326v4.361H46.629Zm5.756,20.956a5.7,5.7,0,0,1,4.909-5.632v9.992H52.385Zm6.554,4.361V89.614a5.718,5.718,0,0,1,4.934,5.632v4.361Zm24.595,0H71.224V75.136h12.31Z" transform="translate(-31.055 -47.109)" fill="#1a171b"/>
  </g>
  <g id="Group_678" data-name="Group 678" transform="translate(19.686 19.956)">
    <path id="Path_2022" data-name="Path 2022" d="M32.667,55.309H45.774a.83.83,0,0,0,.822-.822V49.278a.778.778,0,0,0-.548-.748,10.508,10.508,0,0,0-6.828-.1,10.508,10.508,0,0,0-6.828.1.778.778,0,0,0-.548.748v5.208A.83.83,0,0,0,32.667,55.309Zm12.31-5.432v3.788H40.043V49.876A10.327,10.327,0,0,1,44.977,49.876Zm-11.488,0a10.225,10.225,0,0,1,4.909,0v3.788H33.49Z" transform="translate(-31.845 -47.91)" fill="#1a171b"/>
  </g>
  <g id="Group_679" data-name="Group 679" transform="translate(19.686 30.615)">
    <path id="Path_2023" data-name="Path 2023" d="M32.667,55.743H45.774a.846.846,0,0,0,.822-.822V49.712a.833.833,0,0,0-.548-.773,10.846,10.846,0,0,0-6.828-.1,10.846,10.846,0,0,0-6.828.1.833.833,0,0,0-.548.773V54.92A.847.847,0,0,0,32.667,55.743Zm12.31-5.432v3.763H40.043V50.31A9.212,9.212,0,0,1,44.977,50.31Zm-11.488,0a9.121,9.121,0,0,1,4.909,0v3.763H33.49Z" transform="translate(-31.845 -48.338)" fill="#1a171b"/>
  </g>
  <g id="Group_680" data-name="Group 680" transform="translate(4.909 30.376)">
    <path id="Path_2024" data-name="Path 2024" d="M31.5,48.571a.707.707,0,0,0-.249.548.773.773,0,0,0,.249.6.812.812,0,0,0,.573.249.859.859,0,0,0,.573-.249.87.87,0,0,0,.249-.6.823.823,0,0,0-1.4-.548Z" transform="translate(-31.252 -48.328)" fill="#1a171b"/>
  </g>
  <g id="Group_681" data-name="Group 681" transform="translate(4.909 38.941)">
    <path id="Path_2025" data-name="Path 2025" d="M32.074,48.672a.83.83,0,0,0-.822.822.822.822,0,0,0,1.645,0A.83.83,0,0,0,32.074,48.672Z" transform="translate(-31.252 -48.672)" fill="#1a171b"/>
  </g>
  <g id="Group_682" data-name="Group 682" transform="translate(4.909 34.655)">
    <path id="Path_2026" data-name="Path 2026" d="M32.074,48.5a.83.83,0,0,0-.822.822.823.823,0,0,0,1.645,0A.83.83,0,0,0,32.074,48.5Z" transform="translate(-31.252 -48.5)" fill="#1a171b"/>
  </g>
  <g id="Group_683" data-name="Group 683" transform="translate(4.909 43.252)">
    <path id="Path_2027" data-name="Path 2027" d="M32.074,48.845a.81.81,0,1,0,.822.8A.808.808,0,0,0,32.074,48.845Z" transform="translate(-31.252 -48.845)" fill="#1a171b"/>
  </g>
  <g id="Group_684" data-name="Group 684" transform="translate(4.909 47.538)">
    <path id="Path_2028" data-name="Path 2028" d="M31.5,49.241a.757.757,0,0,0-.249.573.689.689,0,0,0,.249.573.721.721,0,0,0,.573.249.757.757,0,0,0,.573-.249.811.811,0,0,0,.249-.573.858.858,0,0,0-.249-.573A.844.844,0,0,0,31.5,49.241Z" transform="translate(-31.252 -49.017)" fill="#1a171b"/>
  </g>
  <g id="Group_685" data-name="Group 685" transform="translate(9.045 30.369)">
    <path id="Path_2029" data-name="Path 2029" d="M31.667,48.552a.8.8,0,0,0-.249.573.773.773,0,0,0,.249.6.811.811,0,0,0,.573.249.859.859,0,0,0,.573-.249.87.87,0,0,0,.249-.6.912.912,0,0,0-.249-.573A.845.845,0,0,0,31.667,48.552Z" transform="translate(-31.418 -48.328)" fill="#1a171b"/>
  </g>
  <g id="Group_686" data-name="Group 686" transform="translate(9.045 38.941)">
    <path id="Path_2030" data-name="Path 2030" d="M32.24,48.672a.822.822,0,1,0,.822.822A.83.83,0,0,0,32.24,48.672Z" transform="translate(-31.418 -48.672)" fill="#1a171b"/>
  </g>
  <g id="Group_687" data-name="Group 687" transform="translate(9.045 34.655)">
    <path id="Path_2031" data-name="Path 2031" d="M32.24,48.5a.83.83,0,0,0-.822.822.823.823,0,0,0,1.645,0A.829.829,0,0,0,32.24,48.5Z" transform="translate(-31.418 -48.5)" fill="#1a171b"/>
  </g>
  <g id="Group_688" data-name="Group 688" transform="translate(9.045 43.252)">
    <path id="Path_2032" data-name="Path 2032" d="M32.24,48.845a.81.81,0,1,0,.822.8A.808.808,0,0,0,32.24,48.845Z" transform="translate(-31.418 -48.845)" fill="#1a171b"/>
  </g>
  <g id="Group_689" data-name="Group 689" transform="translate(9.045 47.535)">
    <path id="Path_2033" data-name="Path 2033" d="M31.642,49.219a.941.941,0,0,0-.224.6.75.75,0,0,0,.224.573.919.919,0,0,0,.6.249.859.859,0,0,0,.573-.249.768.768,0,0,0,.249-.573.858.858,0,0,0-.249-.573A.906.906,0,0,0,31.642,49.219Z" transform="translate(-31.418 -49.017)" fill="#1a171b"/>
  </g>
  <g id="Group_690" data-name="Group 690" transform="translate(47.569 30.475)">
    <path id="Path_2034" data-name="Path 2034" d="M33.811,49.971a.773.773,0,0,0,.548-.224.81.81,0,0,0,.249-.6.722.722,0,0,0-.249-.573.8.8,0,0,0-1.146,0,.811.811,0,0,0-.249.573.974.974,0,0,0,.249.6A.808.808,0,0,0,33.811,49.971Z" transform="translate(-32.964 -48.332)" fill="#1a171b"/>
  </g>
  <g id="Group_691" data-name="Group 691" transform="translate(47.569 34.755)">
    <path id="Path_2035" data-name="Path 2035" d="M33.811,50.124a.793.793,0,0,0,.8-.822.8.8,0,0,0-.8-.8.831.831,0,0,0-.847.8A.82.82,0,0,0,33.811,50.124Z" transform="translate(-32.964 -48.504)" fill="#1a171b"/>
  </g>
  <g id="Group_692" data-name="Group 692" transform="translate(47.569 43.302)">
    <path id="Path_2036" data-name="Path 2036" d="M33.811,50.467a.808.808,0,0,0,.8-.822.772.772,0,0,0-.8-.8.8.8,0,0,0-.847.8A.835.835,0,0,0,33.811,50.467Z" transform="translate(-32.964 -48.847)" fill="#1a171b"/>
  </g>
  <g id="Group_693" data-name="Group 693" transform="translate(47.569 39.016)">
    <path id="Path_2037" data-name="Path 2037" d="M33.811,50.295a.772.772,0,0,0,.8-.8.793.793,0,0,0-.8-.822.82.82,0,0,0-.847.822A.8.8,0,0,0,33.811,50.295Z" transform="translate(-32.964 -48.675)" fill="#1a171b"/>
  </g>
  <g id="Group_694" data-name="Group 694" transform="translate(47.569 47.563)">
    <path id="Path_2038" data-name="Path 2038" d="M33.811,50.638a.706.706,0,0,0,.548-.249.673.673,0,0,0,.249-.548.773.773,0,0,0-.249-.6.844.844,0,0,0-1.146,0,.87.87,0,0,0-.249.6.755.755,0,0,0,.249.548A.738.738,0,0,0,33.811,50.638Z" transform="translate(-32.964 -49.018)" fill="#1a171b"/>
  </g>
  <g id="Group_695" data-name="Group 695" transform="translate(43.433 30.485)">
    <path id="Path_2039" data-name="Path 2039" d="M33.62,49.962a.893.893,0,0,0,.6-.224.941.941,0,0,0,.224-.6.789.789,0,0,0-.224-.573.851.851,0,0,0-1.171,0,.811.811,0,0,0-.249.573.974.974,0,0,0,.249.6A.832.832,0,0,0,33.62,49.962Z" transform="translate(-32.798 -48.333)" fill="#1a171b"/>
  </g>
  <g id="Group_696" data-name="Group 696" transform="translate(43.433 43.302)">
    <path id="Path_2040" data-name="Path 2040" d="M33.62,50.467a.814.814,0,0,0,.822-.822.779.779,0,0,0-.822-.8.793.793,0,0,0-.822.8A.83.83,0,0,0,33.62,50.467Z" transform="translate(-32.798 -48.847)" fill="#1a171b"/>
  </g>
  <g id="Group_697" data-name="Group 697" transform="translate(43.433 39.016)">
    <path id="Path_2041" data-name="Path 2041" d="M33.62,50.295a.779.779,0,0,0,.822-.8.8.8,0,0,0-.822-.822.814.814,0,0,0-.822.822A.793.793,0,0,0,33.62,50.295Z" transform="translate(-32.798 -48.675)" fill="#1a171b"/>
  </g>
  <g id="Group_698" data-name="Group 698" transform="translate(43.433 34.755)">
    <path id="Path_2042" data-name="Path 2042" d="M33.62,50.124a.8.8,0,0,0,.822-.822.808.808,0,0,0-.822-.8.825.825,0,0,0-.822.8A.814.814,0,0,0,33.62,50.124Z" transform="translate(-32.798 -48.504)" fill="#1a171b"/>
  </g>
  <g id="Group_699" data-name="Group 699" transform="translate(43.433 47.572)">
    <path id="Path_2043" data-name="Path 2043" d="M33.62,50.629a.772.772,0,0,0,.6-.249.732.732,0,0,0,.224-.548.849.849,0,0,0-.224-.6.9.9,0,0,0-1.171,0,.87.87,0,0,0-.249.6.855.855,0,0,0,.822.8Z" transform="translate(-32.798 -49.018)" fill="#1a171b"/>
  </g>
</svg>
