<svg id="Group_746" data-name="Group 746" xmlns="http://www.w3.org/2000/svg" width="54.098" height="49.114" viewBox="0 0 54.098 49.114">
  <g id="Group_659" data-name="Group 659">
    <path id="Path_2005" data-name="Path 2005" d="M98.98,66.613H49.816a2.451,2.451,0,0,0-2.467,2.442v37.4a2.473,2.473,0,0,0,2.467,2.467H67.358l-2.492,5.158H59.634a.823.823,0,0,0,0,1.645H89.162a.822.822,0,0,0,0-1.645H83.929l-2.492-5.158H98.98a2.473,2.473,0,0,0,2.467-2.467v-37.4A2.451,2.451,0,0,0,98.98,66.613ZM48.969,69.055a.83.83,0,0,1,.847-.8H98.98a.815.815,0,0,1,.847.8v31.622H75.98V89.962a5.53,5.53,0,0,0-5.532-5.507H58.513a5.509,5.509,0,0,0-5.507,5.507v10.715H48.969Zm21.48,20.907a.793.793,0,0,0-.8.822v9.893H59.335V90.784a.822.822,0,0,0-1.645,0v9.893H54.65V89.962A3.85,3.85,0,0,1,58.513,86.1H63.72v10.69a.823.823,0,0,0,1.645,0V86.1h5.083a3.871,3.871,0,0,1,3.887,3.863v10.715H71.271V90.784A.814.814,0,0,0,70.448,89.962ZM82.11,114.083H66.686l2.492-5.158H79.643Zm17.717-7.625a.831.831,0,0,1-.847.8H49.816a.848.848,0,0,1-.847-.8v-4.112H99.827Z" transform="translate(-47.349 -66.613)" fill="#1a171b"/>
  </g>
  <g id="Group_660" data-name="Group 660" transform="translate(26.239 37.353)">
    <path id="Path_2006" data-name="Path 2006" d="M49.224,68.112a.835.835,0,0,0,0,1.67.836.836,0,0,0,0-1.67Z" transform="translate(-48.402 -68.112)" fill="#1a171b"/>
  </g>
  <g id="Group_661" data-name="Group 661" transform="translate(12.11 5.906)">
    <path id="Path_2007" data-name="Path 2007" d="M52.769,76.718a4.934,4.934,0,1,0-4.934-4.934A4.929,4.929,0,0,0,52.769,76.718Zm0-8.223a3.289,3.289,0,1,1-3.289,3.289A3.307,3.307,0,0,1,52.769,68.495Z" transform="translate(-47.835 -66.85)" fill="#1a171b"/>
  </g>
  <g id="Group_662" data-name="Group 662" transform="translate(31.871 5.906)">
    <path id="Path_2008" data-name="Path 2008" d="M49.45,68.495h.822a.822.822,0,1,0,0-1.645H49.45a.822.822,0,0,0,0,1.645Z" transform="translate(-48.628 -66.85)" fill="#1a171b"/>
  </g>
  <g id="Group_663" data-name="Group 663" transform="translate(31.871 10.416)">
    <path id="Path_2009" data-name="Path 2009" d="M49.45,68.676h.822a.822.822,0,1,0,0-1.645H49.45a.822.822,0,0,0,0,1.645Z" transform="translate(-48.628 -67.031)" fill="#1a171b"/>
  </g>
  <g id="Group_664" data-name="Group 664" transform="translate(31.871 14.926)">
    <path id="Path_2010" data-name="Path 2010" d="M49.45,68.832h.822a.808.808,0,0,0,.822-.8.83.83,0,0,0-.822-.823H49.45a.83.83,0,0,0-.822.823A.808.808,0,0,0,49.45,68.832Z" transform="translate(-48.628 -67.212)" fill="#1a171b"/>
  </g>
  <g id="Group_665" data-name="Group 665" transform="translate(31.871 23.947)">
    <path id="Path_2011" data-name="Path 2011" d="M49.45,69.219h.822a.835.835,0,0,0,.822-.847.825.825,0,0,0-.822-.8H49.45a.825.825,0,0,0-.822.8A.835.835,0,0,0,49.45,69.219Z" transform="translate(-48.628 -67.574)" fill="#1a171b"/>
  </g>
  <g id="Group_666" data-name="Group 666" transform="translate(36.331 5.906)">
    <path id="Path_2012" data-name="Path 2012" d="M49.629,68.495h9.644a.822.822,0,0,0,0-1.645H49.629a.822.822,0,0,0,0,1.645Z" transform="translate(-48.807 -66.85)" fill="#1a171b"/>
  </g>
  <g id="Group_667" data-name="Group 667" transform="translate(36.331 10.416)">
    <path id="Path_2013" data-name="Path 2013" d="M49.629,68.676h8.024a.822.822,0,1,0,0-1.645H49.629a.822.822,0,0,0,0,1.645Z" transform="translate(-48.807 -67.031)" fill="#1a171b"/>
  </g>
  <g id="Group_668" data-name="Group 668" transform="translate(36.331 14.926)">
    <path id="Path_2014" data-name="Path 2014" d="M49.629,68.832H60.095a.793.793,0,0,0,.822-.8.814.814,0,0,0-.822-.823H49.629a.814.814,0,0,0-.822.823A.793.793,0,0,0,49.629,68.832Z" transform="translate(-48.807 -67.212)" fill="#1a171b"/>
  </g>
  <g id="Group_669" data-name="Group 669" transform="translate(36.331 19.436)">
    <path id="Path_2015" data-name="Path 2015" d="M49.629,69.038h8.024a.83.83,0,0,0,.822-.822.814.814,0,0,0-.822-.823H49.629a.8.8,0,0,0-.822.823A.814.814,0,0,0,49.629,69.038Z" transform="translate(-48.807 -67.393)" fill="#1a171b"/>
  </g>
  <g id="Group_670" data-name="Group 670" transform="translate(36.331 23.947)">
    <path id="Path_2016" data-name="Path 2016" d="M49.629,69.219H60.095a.82.82,0,0,0,.822-.847.809.809,0,0,0-.822-.8H49.629a.809.809,0,0,0-.822.8A.819.819,0,0,0,49.629,69.219Z" transform="translate(-48.807 -67.574)" fill="#1a171b"/>
  </g>
  <g id="Group_671" data-name="Group 671" transform="translate(36.331 28.457)">
    <path id="Path_2017" data-name="Path 2017" d="M49.629,69.375h6.379a.809.809,0,0,0,.822-.8.83.83,0,0,0-.822-.822H49.629a.814.814,0,0,0-.822.822A.793.793,0,0,0,49.629,69.375Z" transform="translate(-48.807 -67.755)" fill="#1a171b"/>
  </g>
</svg>
