<svg id="Group_747" data-name="Group 747" xmlns="http://www.w3.org/2000/svg" width="54.098" height="54.098" viewBox="0 0 54.098 54.098">
  <path id="Path_1899" data-name="Path 1899" d="M101.177,99.521H80.669V71.737h6.977V83.175a6.554,6.554,0,1,0,13.107,0V66.8h.424a.83.83,0,0,0,.822-.822V61.072a.814.814,0,0,0-.822-.822H87.222a.814.814,0,0,0-.822.822v4.909a.83.83,0,0,0,.822.822h.424v3.264H80.669V52.8a.8.8,0,0,0-.822-.822.814.814,0,0,0-.822.822V76.646H72.072V73.357h.4a.83.83,0,0,0,.822-.822V67.6a.825.825,0,0,0-.822-.8H58.516a.8.8,0,0,0-.8.8v4.934a.808.808,0,0,0,.8.822h.424v16.4a6.566,6.566,0,0,0,13.132,0V78.266h6.952V99.521H58.516a5.727,5.727,0,0,0-5.706,5.731.793.793,0,0,0,.8.822h52.478a.813.813,0,0,0,.822-.822A5.748,5.748,0,0,0,101.177,99.521Zm-2.068-24.2a6.2,6.2,0,0,0-5.382.623,4.641,4.641,0,0,1-4.46.174V71.737h9.843ZM94.2,88.134a4.951,4.951,0,0,1-4.934-4.959V77.917a7.312,7.312,0,0,0,2.068.324,5.937,5.937,0,0,0,3.339-.947,4.6,4.6,0,0,1,4.435-.2v6.08A4.929,4.929,0,0,1,94.2,88.134ZM88.045,61.895h12.31v3.264H88.045ZM89.266,66.8h9.843v3.264H89.266Zm-29.9,1.645H71.648v3.289H59.364Zm11.064,4.909v3.289H60.584V73.357ZM65.493,94.662a4.9,4.9,0,0,1-4.909-4.909V88.582a6.282,6.282,0,0,0,2.043.349,6.142,6.142,0,0,0,3.339-.947,4.646,4.646,0,0,1,4.46-.2v1.968A4.924,4.924,0,0,1,65.493,94.662Zm4.934-8.647a6.174,6.174,0,0,0-5.382.6,4.713,4.713,0,0,1-4.46.2V78.266h9.843ZM54.5,104.43a4.137,4.137,0,0,1,4.012-3.264h42.66a4.137,4.137,0,0,1,4.012,3.264Z" transform="translate(-52.81 -51.977)" fill="#1a171b"/>
</svg>
