<svg id="Group_715" data-name="Group 715" xmlns="http://www.w3.org/2000/svg" width="56.227" height="56.634" viewBox="0 0 56.227 56.634">
  <g id="Group_519" data-name="Group 519">
    <path id="Path_1881" data-name="Path 1881" d="M96.77,91.668l.417.026a11.86,11.86,0,0,0,10.328-17.656,28.482,28.482,0,0,0-7.876-24.958.866.866,0,0,0-1.226,0l-3.886,3.834a21.764,21.764,0,0,0-26.184-2.608,12.071,12.071,0,0,0-3.677-.6A11.864,11.864,0,0,0,57.99,71.379a21.883,21.883,0,0,0,5.685,12.466L59.5,87.991a.792.792,0,0,0-.261.6.847.847,0,0,0,.261.626A28.361,28.361,0,0,0,79.558,97.51v4.538H64.275a.848.848,0,1,0,0,1.7h32.26a.848.848,0,0,0,0-1.7H81.253V97.432A28.29,28.29,0,0,0,96.77,91.668ZM97.187,90a10.135,10.135,0,0,1-8.971-14.918.734.734,0,0,0,.078-.574l-.887-4.147,4.408.626a.793.793,0,0,0,.548-.078,10.25,10.25,0,0,1,4.825-1.2,10.145,10.145,0,0,1,0,20.29Zm1.826-39.093A26.558,26.558,0,0,1,106.054,72a12.8,12.8,0,0,0-4.486-3.182,21.668,21.668,0,0,0-5.816-14.709ZM54.521,61.573a10.145,10.145,0,1,1,19.09,4.773.867.867,0,0,0-.078.574l.887,4.121-4.434-.626a.76.76,0,0,0-.522.1,10.155,10.155,0,0,1-14.944-8.945ZM64.666,73.439a11.9,11.9,0,0,0,5.372-1.278l5.372.782a.788.788,0,0,0,.73-.261.888.888,0,0,0,.235-.782l-1.1-5.033a11.825,11.825,0,0,0-4.955-15.7,19.558,19.558,0,0,1,6.989-2.191c.808-.078,1.617-.13,2.425-.13A19.883,19.883,0,0,1,93.3,54.14l-1.539,1.513a.858.858,0,0,0,1.226,1.2L94.5,55.34A19.94,19.94,0,0,1,99.847,68.3a11.25,11.25,0,0,0-2.66-.313,12.088,12.088,0,0,0-5.4,1.278l-5.372-.756a.84.84,0,0,0-.73.235.791.791,0,0,0-.209.783l1.069,5.033A12.057,12.057,0,0,0,85.3,79.854a11.773,11.773,0,0,0,2.686,7.485,18.743,18.743,0,0,1-5.868,1.669,19.979,19.979,0,0,1-16.639-5.764,19.669,19.669,0,0,1-5.581-10.823A12.128,12.128,0,0,0,64.666,73.439Zm.209,11.605A21.585,21.585,0,0,0,79.688,90.86a22.608,22.608,0,0,0,2.634-.157,21.633,21.633,0,0,0,6.911-2.06,12.126,12.126,0,0,0,5.033,2.712,26.726,26.726,0,0,1-32.938-2.764Z" transform="translate(-52.8 -47.109)" fill="#0083b0"/>
  </g>
  <g id="Group_520" data-name="Group 520" transform="translate(7.328 7.683)">
    <path id="Path_1882" data-name="Path 1882" d="M60.461,55.958v3.364a.853.853,0,0,0,.835.887.874.874,0,0,0,.861-.887v-7.38a4.538,4.538,0,1,0-9.076,0v7.38a.848.848,0,1,0,1.7,0V55.958Zm-2.843-6.833a2.844,2.844,0,0,1,2.843,2.817v2.3H54.776v-2.3A2.844,2.844,0,0,1,57.619,49.125Z" transform="translate(-53.081 -47.404)" fill="#0083b0"/>
  </g>
  <g id="Group_521" data-name="Group 521" transform="translate(40.736 26.121)">
    <path id="Path_1883" data-name="Path 1883" d="M61.169,53.875a3.205,3.205,0,0,0,.6-1.93v-.391a3.451,3.451,0,0,0-3.416-3.442H55.223a.874.874,0,0,0-.861.887V60.055a.874.874,0,0,0,.861.887h4.825A3.451,3.451,0,0,0,63.464,57.5v-.417A3.438,3.438,0,0,0,61.169,53.875Zm-5.085-4.016h2.269a1.714,1.714,0,0,1,1.721,1.7v.391a1.72,1.72,0,0,1-1.721,1.721H56.083ZM61.742,57.5a1.692,1.692,0,0,1-1.7,1.7H56.083V55.387h3.964a1.692,1.692,0,0,1,1.7,1.7Z" transform="translate(-54.362 -48.111)" fill="#0083b0"/>
  </g>
</svg>
