<svg id="Group_716" data-name="Group 716" xmlns="http://www.w3.org/2000/svg" width="52.722" height="54.374" viewBox="0 0 52.722 54.374">
  <g id="Group_505" data-name="Group 505" transform="translate(14.269)">
    <path id="Path_1869" data-name="Path 1869" d="M80.179,47.109H78.9a.792.792,0,0,0-.7.426L68.463,64.808V58.7a4.311,4.311,0,0,0-4.281-4.281H46.834A4.317,4.317,0,0,0,42.528,58.7V84.91a4.306,4.306,0,0,0,4.306,4.306h7.861l-6.209,11.04a.814.814,0,0,0,0,.826.855.855,0,0,0,.7.4H80.179a.8.8,0,0,0,.8-.826V47.96A.834.834,0,0,0,80.179,47.109ZM68.463,84.91V80.3l5.057-8.987v21.7H61.279l2.153-3.805h.751A4.3,4.3,0,0,0,68.463,84.91Zm-24.283,0V58.7a2.65,2.65,0,0,1,2.654-2.628H64.182A2.644,2.644,0,0,1,66.811,58.7V84.91a2.655,2.655,0,0,1-2.628,2.679H46.834A2.66,2.66,0,0,1,44.18,84.91Zm6.434,14.92L56.6,89.216h4.957l-2.4,4.256a.826.826,0,0,0,.7,1.227H74.346a.833.833,0,0,0,.826-.826V68.163a.8.8,0,0,0-.626-.776.824.824,0,0,0-.926.4l-5.157,9.162V68.163l10.865-19.3V59.15H77.951a.817.817,0,0,0-.826.826.833.833,0,0,0,.826.826h1.377v3.98H77.951a.839.839,0,0,0-.826.851.829.829,0,0,0,.826.8h1.377v4.005H77.951a.826.826,0,0,0,0,1.652h1.377V76.1H77.951a.817.817,0,0,0-.826.826.85.85,0,0,0,.826.826h1.377v3.98H77.951a.85.85,0,0,0-.826.826.839.839,0,0,0,.826.851h1.377v4.006H77.951a.8.8,0,0,0-.826.8.817.817,0,0,0,.826.826h1.377v3.98H77.951a.861.861,0,0,0-.826.876.829.829,0,0,0,.826.8h1.377v5.132Z" transform="translate(-42.528 -47.109)" fill="#0083b0"/>
  </g>
  <g id="Group_506" data-name="Group 506" transform="translate(18.65 11.516)">
    <path id="Path_1870" data-name="Path 1870" d="M59.05,47.569H43.529a.839.839,0,0,0-.826.851v5.007a.833.833,0,0,0,.826.826H59.05a.833.833,0,0,0,.826-.826V48.42A.839.839,0,0,0,59.05,47.569Zm-.826,5.057H44.355v-3.4H58.224Z" transform="translate(-42.703 -47.569)" fill="#0083b0"/>
  </g>
  <g id="Group_507" data-name="Group 507" transform="translate(18.65 20.578)">
    <path id="Path_1871" data-name="Path 1871" d="M46.884,47.931h-.9A3.291,3.291,0,0,0,42.7,51.21v.9a3.275,3.275,0,0,0,3.279,3.279h.9a3.28,3.28,0,0,0,3.3-3.279v-.9A3.3,3.3,0,0,0,46.884,47.931Zm1.652,4.181a1.651,1.651,0,0,1-1.652,1.652h-.9a1.63,1.63,0,0,1-1.627-1.652v-.9a1.646,1.646,0,0,1,1.627-1.652h.9a1.667,1.667,0,0,1,1.652,1.652Z" transform="translate(-42.703 -47.931)" fill="#0083b0"/>
  </g>
  <g id="Group_508" data-name="Group 508" transform="translate(28.338 20.578)">
    <path id="Path_1872" data-name="Path 1872" d="M47.271,47.931h-.876a3.3,3.3,0,0,0-3.3,3.279v.9a3.28,3.28,0,0,0,3.3,3.279h.876a3.28,3.28,0,0,0,3.3-3.279v-.9A3.3,3.3,0,0,0,47.271,47.931Zm1.652,4.181a1.651,1.651,0,0,1-1.652,1.652h-.876a1.635,1.635,0,0,1-1.652-1.652v-.9a1.651,1.651,0,0,1,1.652-1.652h.876a1.667,1.667,0,0,1,1.652,1.652Z" transform="translate(-43.09 -47.931)" fill="#0083b0"/>
  </g>
  <g id="Group_509" data-name="Group 509" transform="translate(18.65 30.416)">
    <path id="Path_1873" data-name="Path 1873" d="M46.884,48.324h-.9A3.291,3.291,0,0,0,42.7,51.6v.9a3.312,3.312,0,0,0,3.279,3.3h.9a3.317,3.317,0,0,0,3.3-3.3v-.9A3.3,3.3,0,0,0,46.884,48.324ZM48.536,52.5a1.667,1.667,0,0,1-1.652,1.652h-.9A1.645,1.645,0,0,1,44.355,52.5v-.9a1.624,1.624,0,0,1,1.627-1.627h.9A1.646,1.646,0,0,1,48.536,51.6Z" transform="translate(-42.703 -48.324)" fill="#0083b0"/>
  </g>
  <g id="Group_510" data-name="Group 510" transform="translate(28.338 30.416)">
    <path id="Path_1874" data-name="Path 1874" d="M47.271,48.324h-.876a3.3,3.3,0,0,0-3.3,3.279v.9a3.317,3.317,0,0,0,3.3,3.3h.876a3.317,3.317,0,0,0,3.3-3.3v-.9A3.3,3.3,0,0,0,47.271,48.324ZM48.923,52.5a1.667,1.667,0,0,1-1.652,1.652h-.876A1.651,1.651,0,0,1,44.742,52.5v-.9a1.63,1.63,0,0,1,1.652-1.627h.876A1.646,1.646,0,0,1,48.923,51.6Z" transform="translate(-43.09 -48.324)" fill="#0083b0"/>
  </g>
  <g id="Group_511" data-name="Group 511" transform="translate(0 0.038)">
    <path id="Path_1875" data-name="Path 1875" d="M51.947,55.635l-.025-.05v-.05l-.075-.275h-.025l-4.156-7.735a.823.823,0,0,0-1.427,0l-4.181,7.735h0l-.075.275v.05l-.025.05V93.511l.025.025h-.025v6.459a.888.888,0,0,0,.576.776,15.854,15.854,0,0,0,4.431.676,15.374,15.374,0,0,0,4.381-.676.877.877,0,0,0,.6-.776V93.511h0Zm-2.228,37.4-.576.1-.35.05a2.636,2.636,0,0,1-.6.075l-.325.025-.1.025V57.087a14.333,14.333,0,0,0,2.529-.376V92.885l-.225.05Zm-3.98.225a2.679,2.679,0,0,1-.626-.075l-.351-.05-.576-.1-.326-.1-.25-.05V56.711a14.771,14.771,0,0,0,2.5.376V93.311l-.075-.025Zm1.227-43.609,2.929,5.482a16.134,16.134,0,0,1-2.929.325v-.025l-.025.025a16.644,16.644,0,0,1-2.929-.325Zm3.33,49.692a12.617,12.617,0,0,1-6.684,0V94.612h.075l.926.2.3.025.751.1h.3a13.367,13.367,0,0,0,2,0h.275l.751-.1.3-.025.926-.2h.075Z" transform="translate(-41.958 -47.111)" fill="#0083b0"/>
  </g>
</svg>
