<svg id="Group_717" data-name="Group 717" xmlns="http://www.w3.org/2000/svg" width="52.253" height="46.934" viewBox="0 0 52.253 46.934">
  <g id="Group_556" data-name="Group 556" transform="translate(10.658 38.244)">
    <path id="Path_1913" data-name="Path 1913" d="M39.471,58.768a2.67,2.67,0,1,0,2.681,2.659A2.671,2.671,0,0,0,39.471,58.768Zm0,3.913a1.254,1.254,0,1,1,1.254-1.254A1.25,1.25,0,0,1,39.471,62.681Z" transform="translate(-36.812 -58.768)" fill="#0083b0"/>
  </g>
  <g id="Group_557" data-name="Group 557" transform="translate(19.197 34.676)">
    <path id="Path_1914" data-name="Path 1914" d="M39.888,58.6a2.67,2.67,0,1,0,2.659,2.681A2.667,2.667,0,0,0,39.888,58.6Zm0,3.913a1.243,1.243,0,1,1,1.232-1.232A1.237,1.237,0,0,1,39.888,62.516Z" transform="translate(-37.207 -58.603)" fill="#0083b0"/>
  </g>
  <g id="Group_558" data-name="Group 558" transform="translate(31.282 38.244)">
    <path id="Path_1915" data-name="Path 1915" d="M40.447,58.768a2.67,2.67,0,1,0,2.659,2.659A2.676,2.676,0,0,0,40.447,58.768Zm0,3.913a1.254,1.254,0,1,1,1.232-1.254A1.255,1.255,0,0,1,40.447,62.681Z" transform="translate(-37.766 -58.768)" fill="#0083b0"/>
  </g>
  <g id="Group_559" data-name="Group 559" transform="translate(40.535 36.103)">
    <path id="Path_1916" data-name="Path 1916" d="M40.853,58.669a2.659,2.659,0,1,0,2.681,2.659A2.657,2.657,0,0,0,40.853,58.669Zm0,3.913a1.25,1.25,0,0,1-1.232-1.254,1.243,1.243,0,1,1,1.232,1.254Z" transform="translate(-38.194 -58.669)" fill="#0083b0"/>
  </g>
  <g id="Group_560" data-name="Group 560">
    <path id="Path_1917" data-name="Path 1917" d="M88.572,76.932V76.91l-.087-.216-.022-.043-.108-.173-.043-.022h0c-3.567-3.437-10.507-4.475-14.96-2.205L72.7,73.191V61.928h.713a1.905,1.905,0,0,0,1.9-1.9V58.9a1.919,1.919,0,0,0-1.9-1.9H55.041a1.919,1.919,0,0,0-1.9,1.9v1.124a1.905,1.905,0,0,0,1.9,1.9h.713v7.761l-.259-.173c-5.6-2.9-14.42-1.621-18.916,2.724v.022l-.043.022-.13.173-.022.043-.065.216v.173l.022.043V73l.065.151.065.086.216.195h0a31.022,31.022,0,0,1,5.88,4.389,29.632,29.632,0,0,0,7.242,5.124l-7.134,11.7a6.123,6.123,0,0,0,5.232,9.3H80.573a6.123,6.123,0,0,0,5.21-9.3L79.448,84.282a30.565,30.565,0,0,0,4.129-3.221,25.823,25.823,0,0,1,4.6-3.416v-.022l.238-.195.043-.086.087-.13v-.043l.022-.043ZM54.565,60.026V58.9a.5.5,0,0,1,.476-.5H73.417a.5.5,0,0,1,.476.5v1.124a.5.5,0,0,1-.476.476H55.041A.5.5,0,0,1,54.565,60.026Zm30.2,15.738a17.267,17.267,0,0,0-9.772,1.946,15.309,15.309,0,0,0-4.864,4.432c.022-3.048,1.276-5.318,3.762-6.572C76.9,73.991,81.416,74.186,84.767,75.764ZM57.181,61.971h14.1V73.408a1.036,1.036,0,0,0,.108.368l.735,1.189c-2.7,1.946-3.848,5.188-3.243,9.3a24.581,24.581,0,0,0-1.794,4.713,3.692,3.692,0,0,0-.562.454,3.741,3.741,0,0,1-2.7,1.124h-.043A31.365,31.365,0,0,0,60.9,81.99c.735-4.951-.584-8.929-3.718-11.371Zm-2.356,8.82c2.421,1.232,5.037,3.827,4.821,9.123a18.5,18.5,0,0,0-5.859-5.729,21.634,21.634,0,0,0-13.836-2.681C44.318,69.084,50.674,68.63,54.825,70.792ZM38.913,73.1c2.875-.476,8.864-.951,14.139,2.292a17.785,17.785,0,0,1,6.075,6.378c-6.918,2.508-11.155-1.146-15.63-5.037A43.327,43.327,0,0,0,38.913,73.1ZM54.738,84.022a14.451,14.451,0,0,0,5.08-.994,30.733,30.733,0,0,1,2.443,7.177,3.475,3.475,0,0,1-1.146-.778,5.232,5.232,0,0,0-7.415,0,3.81,3.81,0,0,1-5.4,0,4.75,4.75,0,0,0-.5-.432l3.351-5.513A12.107,12.107,0,0,0,54.738,84.022Zm29.92,16.106a4.6,4.6,0,0,1-4.086,2.378H47.907a4.577,4.577,0,0,1-4.086-2.378,4.685,4.685,0,0,1,.065-4.756l3.156-5.145.259.216a5.219,5.219,0,0,0,7.394,0,3.823,3.823,0,0,1,5.4,0,5.245,5.245,0,0,0,7.415,0,3.823,3.823,0,0,1,5.4,0,5.245,5.245,0,0,0,7.415,0,2.98,2.98,0,0,1,.865-.605l3.372,5.534A4.686,4.686,0,0,1,84.659,100.128ZM80.443,88.606a5.234,5.234,0,0,0-1.1.822,3.81,3.81,0,0,1-5.4,0,5.272,5.272,0,0,0-5.124-1.319,21.273,21.273,0,0,1,1.167-2.854,10.928,10.928,0,0,0,3.848.757,10.105,10.105,0,0,0,4.389-1.059Zm2.205-8.583c-3.459,2.962-6.723,5.794-12,3.978a13.562,13.562,0,0,1,5.037-5.037,16.688,16.688,0,0,1,10.269-1.643A40.042,40.042,0,0,0,82.648,80.023Z" transform="translate(-36.319 -56.999)" fill="#0083b0"/>
  </g>
</svg>
