<svg xmlns="http://www.w3.org/2000/svg" width="54.063" height="54.088" viewBox="0 0 54.063 54.088">
  <g id="Group_719" data-name="Group 719" transform="translate(0 0)">
    <g id="Group_609" data-name="Group 609" transform="translate(0 43.43)">
      <path id="Path_1959" data-name="Path 1959" d="M106.046,63.43a.793.793,0,0,0-.8.822V72.42h-50.8V64.252a.819.819,0,0,0-.847-.822.793.793,0,0,0-.8.822v8.99a.814.814,0,0,0,.8.847h52.445a.835.835,0,0,0,.822-.847v-8.99A.813.813,0,0,0,106.046,63.43Z" transform="translate(-52.804 -63.43)" fill="#0083b0"/>
    </g>
    <g id="Group_610" data-name="Group 610">
      <path id="Path_1960" data-name="Path 1960" d="M106.046,73.141H98.052l-15.016-7.5a3.157,3.157,0,0,0,.075-.7,3.275,3.275,0,0,0-6.549,0,3.15,3.15,0,0,0,.075.7l-15.016,7.5H53.6a.814.814,0,0,0-.8.847v8.99a.793.793,0,0,0,.8.822.819.819,0,0,0,.847-.822V74.785h50.8v8.193a.793.793,0,0,0,.8.822.813.813,0,0,0,.822-.822v-8.99A.834.834,0,0,0,106.046,73.141Zm-26.2-9.812A1.631,1.631,0,1,1,78.2,64.948,1.637,1.637,0,0,1,79.848,63.329Zm-2.465,3.76a3.2,3.2,0,0,0,4.906,0l12.1,6.051H65.28Z" transform="translate(-52.804 -61.686)" fill="#0083b0"/>
    </g>
    <g id="Group_611" data-name="Group 611" transform="translate(0 17.307)">
      <path id="Path_1961" data-name="Path 1961" d="M56.116,87.408a15.476,15.476,0,0,0,27.243-6.151,15.767,15.767,0,0,0,0-6.823,15.31,15.31,0,0,0-2.939-6.151h0a15.462,15.462,0,0,0-24.3,0h0a15.461,15.461,0,0,0,0,19.125Zm15.44,3.86a17.764,17.764,0,0,0,3.96-5.005l.224.05a7.016,7.016,0,0,1,.772.249,2.063,2.063,0,0,1,.523.149l.822.274.423.174.149.05A13.805,13.805,0,0,1,71.556,91.268Zm10.21-10.384a14.078,14.078,0,0,1-2.241,4.981l-.4-.149L78.5,85.49a6.149,6.149,0,0,0-.722-.249,4.92,4.92,0,0,0-.647-.224c-.249-.075-.5-.174-.722-.224l-.2-.05a17.84,17.84,0,0,0,1.345-6.076h4.507A16.9,16.9,0,0,1,81.766,80.884ZM79.1,69.976l.423-.174a14.394,14.394,0,0,1,2.241,5.005,16.352,16.352,0,0,1,.3,2.216H77.532a17.187,17.187,0,0,0-1.395-6.051l.2-.075.822-.224.6-.224.772-.249Zm-.672-1.494-.124.05-.5.174-.772.274-.5.149c-.274.1-.548.174-.8.249l-.324.075a18.021,18.021,0,0,0-4.109-5.105A13.418,13.418,0,0,1,78.429,68.482ZM69.09,64.7a16.083,16.083,0,0,1,4.657,5.13l-.772.149-.473.075-.971.1-.423.05-1.121.075-.3.025-.6.025Zm0,7.272.7-.025.423-.025c.374-.025.747-.05,1.1-.1l.548-.05.971-.124.573-.1c.3-.05.6-.1.9-.174l.224-.025a15.95,15.95,0,0,1,1.37,5.678h-6.8Zm0,6.7h6.823a15.9,15.9,0,0,1-1.32,5.7l-.3-.075-.847-.149-.648-.1-.872-.125-.622-.075-1-.075-.523-.025-.7-.025Zm0,6.7.573.025.523.025.9.075.548.05a4.8,4.8,0,0,0,.822.075l.6.1.772.149h.025a16.042,16.042,0,0,1-4.756,5.279ZM58.108,87.209l.149-.05.423-.174.822-.274.5-.149c.274-.1.523-.174.8-.249l.324-.1a18.241,18.241,0,0,0,4.233,5.155A13.707,13.707,0,0,1,58.108,87.209Zm9.338,3.711a16.37,16.37,0,0,1-4.632-5.08l.672-.125.573-.1a4.657,4.657,0,0,0,.847-.075l.573-.05.9-.075.5-.025.573-.025Zm0-7.2-.7.025-.5.025-1.021.075-.6.075-.9.125-.623.1-.872.149-.224.05a15.987,15.987,0,0,1-1.395-5.678h6.823Zm0-6.7H60.623a16.536,16.536,0,0,1,1.395-5.678l.224.05c.274.05.573.1.847.125l.647.124.9.124.6.05c.324.05.7.05,1.021.1l.5.025.7.025Zm0-6.7-.6-.025-.324-.025-1.1-.075-.448-.05-.921-.1-.523-.075-.747-.149a16.081,16.081,0,0,1,4.657-5.13ZM65.23,64.348a18.463,18.463,0,0,0-4.109,5.105l-.324-.075-.772-.224L59.5,68.98l-.772-.249-.5-.2-.124-.05A13.419,13.419,0,0,1,65.23,64.348ZM57.013,69.8l.423.174.573.224.747.249.623.224.8.224.224.075a17.777,17.777,0,0,0-1.42,6.051H54.472A13.752,13.752,0,0,1,57.013,69.8Zm1.967,8.865a17.474,17.474,0,0,0,1.42,6.051l-.224.075c-.274.05-.523.149-.8.224a6.21,6.21,0,0,0-.623.224,6.156,6.156,0,0,0-.722.249l-.623.224-.4.149a13.6,13.6,0,0,1-2.54-7.2Z" transform="translate(-52.804 -62.381)" fill="#0083b0"/>
    </g>
    <g id="Group_612" data-name="Group 612" transform="translate(28.267 17.307)">
      <path id="Path_1962" data-name="Path 1962" d="M79.362,74.434a15.47,15.47,0,0,0-2.939-6.151h0a15.481,15.481,0,0,0-22.188-2.216.832.832,0,0,0-.1,1.17.807.807,0,0,0,1.17.075,13.892,13.892,0,0,1,5.9-2.939A17.632,17.632,0,0,0,56.8,70.051l-.025.075-.05.075v.249l.025.149.05.149.075.149.1.1.125.075.075.075h.075l.1.05a29.2,29.2,0,0,0,6.1.747v5.08H58.966a.822.822,0,0,0,0,1.644h4.482v5.055c-.473,0-.946.025-1.394.05l-.174.025c-.747.075-1.494.149-2.216.249h-.075q-1.158.187-2.241.448l-.1.025-.075.025-.075.025-.125.125-.1.1-.075.149-.05.125-.025.075v.324l.05.1.025.05a17.46,17.46,0,0,0,4.433,5.7,13.889,13.889,0,0,1-5.927-2.963.83.83,0,0,0-1.17.1.8.8,0,0,0,.1,1.145,15.472,15.472,0,0,0,25.127-8.342,15.732,15.732,0,0,0,.373-3.412h0A15.565,15.565,0,0,0,79.362,74.434Zm-1.295,2.59H73.559a19.7,19.7,0,0,0-1.22-6.126A24.9,24.9,0,0,0,75.5,69.8a14,14,0,0,1,2.266,5.005A16.372,16.372,0,0,1,78.067,77.024Zm-6.375-7.67a15.46,15.46,0,0,0-3.586-4.781,13.583,13.583,0,0,1,6.325,3.91A23.447,23.447,0,0,1,71.692,69.354Zm-6.6-4.906a12.18,12.18,0,0,1,4.931,5.3,32.122,32.122,0,0,1-4.931.548Zm-6.325,5.379a15.928,15.928,0,0,1,4.682-5.13v5.6A32.761,32.761,0,0,1,58.767,69.827Zm6.325,2.117A32.164,32.164,0,0,0,70.72,71.3a18.057,18.057,0,0,1,1.2,5.728H65.092Zm6.823,6.724a18.348,18.348,0,0,1-1.2,5.728,15.359,15.359,0,0,0-1.544-.274l-.3-.05c-.672-.1-1.37-.2-2.042-.249l-.274-.025-1.469-.075V78.667Zm1.146,8.044.822.3.548.224a13.783,13.783,0,0,1-6.325,3.885,14.853,14.853,0,0,0,3.561-4.806l.224.05Zm-6.4-1.245c.3.025.6.05.9.1.423.05.872.075,1.295.149l.922.149.249.05a12.052,12.052,0,0,1-4.931,5.3V85.391h.2Zm-7.894.4c.374-.075.772-.149,1.146-.2a2.424,2.424,0,0,1,.6-.05c.548-.075,1.1-.125,1.644-.174.274-.025.523-.025.8-.025l.5-.025v5.578A16.1,16.1,0,0,1,58.767,85.864Zm16.759,0-.1-.025c-.6-.224-1.2-.448-1.818-.672l-.274-.075c-.324-.124-.647-.224-1-.324a19.545,19.545,0,0,0,1.22-6.1h4.507a16.924,16.924,0,0,1-.3,2.216A13.652,13.652,0,0,1,75.527,85.864Z" transform="translate(-53.939 -62.381)" fill="#0083b0"/>
    </g>
  </g>
</svg>
