<svg xmlns="http://www.w3.org/2000/svg" width="52.253" height="50.622" viewBox="0 0 52.253 50.622">
  <g id="Group_722" data-name="Group 722" transform="translate(-8.102 -33.024)">
    <g id="Group_720" data-name="Group 720" transform="translate(26.298 48.048)">
      <path id="Path_2090" data-name="Path 2090" d="M16.8,33.648a7.916,7.916,0,0,0-1.059,15.765l.1.024a.8.8,0,0,0,.1-1.589A6.335,6.335,0,1,1,23.058,40.7a.8.8,0,0,0,1.589-.193A7.955,7.955,0,0,0,16.8,33.648Z" transform="translate(-8.858 -33.648)" fill="#0083b0"/>
    </g>
    <g id="Group_721" data-name="Group 721" transform="translate(8.102 33.024)">
      <path id="Path_2091" data-name="Path 2091" d="M60.234,44.727l-.024-.048-.1-.12-.048-.048-.072-.048-.072-.048H59.9L34.553,33.078a1,1,0,0,0-.65,0L8.583,44.414l-.048.024-.072.024-.048.048-.072.048-.1.12-.048.048-.024.144-.048.048-.024.193V71.539a.775.775,0,0,0,.481.722L33.9,83.6h.048l.289.048h0l.265-.048h.048L59.9,72.261a.791.791,0,0,0,.457-.722V45.112A.8.8,0,0,0,60.234,44.727ZM34.24,34.69l10.012,4.453L40.4,40.876a.8.8,0,0,0-.409,1.059.872.872,0,0,0,.746.457l.313-.072L46.2,40.01l11.432,5.1-12.01,5.367a12.64,12.64,0,0,0-22.793,0l-12.01-5.367Zm1.252,22.552,15.187,5.223L44.06,65.4a.757.757,0,0,0-.409.409L40.715,72.43Zm9.435,1.589-10.446-3.61a.794.794,0,0,0-.818.193.805.805,0,0,0-.193.818l3.586,10.446a10.751,10.751,0,0,1-2.816.385A11.084,11.084,0,1,1,45.312,55.991,10.237,10.237,0,0,1,44.927,58.831ZM22.351,76.69V64.632a.794.794,0,1,0-1.589,0v11.36l-11.1-4.958V46.364l11.89,5.3.674.313a12.246,12.246,0,0,0-.674,4.019A12.685,12.685,0,0,0,33.446,68.6V81.648Zm36.44-5.656L35.035,81.648V68.6a11.552,11.552,0,0,0,2.551-.433l2.287,6.691a.761.761,0,0,0,.722.505h.024a.835.835,0,0,0,.722-.457l3.634-8.183,8.183-3.658a.773.773,0,0,0,.481-.746.812.812,0,0,0-.53-.7l-6.667-2.311a12.715,12.715,0,0,0,.457-3.321,12.246,12.246,0,0,0-.674-4.019L58.79,46.364Z" transform="translate(-8.102 -33.024)" fill="#0083b0"/>
    </g>
  </g>
</svg>
